HIERARCHY
ROOT hip
{
  OFFSET 0 0 0
  CHANNELS 6 Xposition Yposition Zposition Zrotation Yrotation Xrotation
  JOINT abdomen
  {
    OFFSET 0 20.6881 -0.73152
    CHANNELS 3 Zrotation Xrotation Yrotation
    JOINT chest
    {
      OFFSET 0 11.7043 -0.48768
      CHANNELS 3 Zrotation Xrotation Yrotation
      JOINT neck
      {
        OFFSET 0 22.1894 -2.19456
        CHANNELS 3 Zrotation Xrotation Yrotation
        JOINT head
        {
          OFFSET -0.24384 7.07133 1.2192
          CHANNELS 3 Zrotation Xrotation Yrotation
          JOINT leftEye
          {
            OFFSET 4.14528 8.04674 8.04672
            CHANNELS 3 Zrotation Xrotation Yrotation
            End Site
            {
              OFFSET 1 0 0
            }
          }
          JOINT rightEye
          {
            OFFSET -3.6576 8.04674 8.04672
            CHANNELS 3 Zrotation Xrotation Yrotation
            End Site
            {
              OFFSET 1 0 0
            }
          }
        }
      }
      JOINT rCollar
      {
        OFFSET -2.68224 19.2634 -4.8768
        CHANNELS 3 Zrotation Xrotation Yrotation
        JOINT rShldr
        {
          OFFSET -8.77824 -1.95073 1.46304
          CHANNELS 3 Zrotation Xrotation Yrotation
          JOINT rForeArm
          {
            OFFSET -28.1742 -1.7115 0.48768
            CHANNELS 3 Zrotation Xrotation Yrotation
            JOINT rHand
            {
              OFFSET -22.5879 0.773209 7.07136
              CHANNELS 3 Zrotation Xrotation Yrotation
              JOINT rThumb1
              {
                OFFSET -1.2192 -0.487915 3.41376
                CHANNELS 3 Zrotation Xrotation Yrotation
                JOINT rThumb2
                {
                  OFFSET -3.37035 -0.52449 3.41376
                  CHANNELS 3 Zrotation Xrotation Yrotation
                  End Site
                  {
                    OFFSET -1.78271 -1.18214 1.43049
                  }
                }
              }
              JOINT rIndex1
              {
                OFFSET -7.75947 0.938293 5.60832
                CHANNELS 3 Zrotation Xrotation Yrotation
                JOINT rIndex2
                {
                  OFFSET -2.54057 -0.884171 1.56538
                  CHANNELS 3 Zrotation Xrotation Yrotation
                  End Site
                  {
                    OFFSET -1.62519 -0.234802 1.16502
                  }
                }
              }
              JOINT rMid1
              {
                OFFSET -8.24714 1.18213 3.41376
                CHANNELS 3 Zrotation Xrotation Yrotation
                JOINT rMid2
                {
                  OFFSET -3.10165 -0.590103 1.0647
                  CHANNELS 3 Zrotation Xrotation Yrotation
                  End Site
                  {
                    OFFSET -2.48547 -0.328903 0.83742
                  }
                }
              }
              JOINT rRing1
              {
                OFFSET -8.82822 0.546677 1.51678
                CHANNELS 3 Zrotation Xrotation Yrotation
                JOINT rRing2
                {
                  OFFSET -2.60934 -0.819778 -0.0198488
                  CHANNELS 3 Zrotation Xrotation Yrotation
                  End Site
                  {
                    OFFSET -2.33842 -0.294052 0.168128
                  }
                }
              }
              JOINT rPinky1
              {
                OFFSET -8.27202 -0.0477905 -0.4584
                CHANNELS 3 Zrotation Xrotation Yrotation
                JOINT rPinky2
                {
                  OFFSET -1.82734 -0.647385 -0.700984
                  CHANNELS 3 Zrotation Xrotation Yrotation
                  End Site
                  {
                    OFFSET -1.69225 -0.51767 -0.607171
                  }
                }
              }
            }
          }
        }
      }
      JOINT lCollar
      {
        OFFSET 2.68224 19.2634 -4.8768
        CHANNELS 3 Zrotation Xrotation Yrotation
        JOINT lShldr
        {
          OFFSET 8.77824 -1.95073 1.46304
          CHANNELS 3 Zrotation Xrotation Yrotation
          JOINT lForeArm
          {
            OFFSET 28.1742 -1.7115 0.48768
            CHANNELS 3 Zrotation Xrotation Yrotation
            JOINT lHand
            {
              OFFSET 22.5879 0.773209 7.07136
              CHANNELS 3 Zrotation Xrotation Yrotation
              JOINT lThumb1
              {
                OFFSET 1.2192 -0.487915 3.41376
                CHANNELS 3 Zrotation Xrotation Yrotation
                JOINT lThumb2
                {
                  OFFSET 3.37035 -0.52449 3.41376
                  CHANNELS 3 Zrotation Xrotation Yrotation
                  End Site
                  {
                    OFFSET 1.78271 -1.18214 1.43049
                  }
                }
              }
              JOINT lIndex1
              {
                OFFSET 7.75947 0.938293 5.60832
                CHANNELS 3 Zrotation Xrotation Yrotation
                JOINT lIndex2
                {
                  OFFSET 2.54057 -0.884171 1.56538
                  CHANNELS 3 Zrotation Xrotation Yrotation
                  End Site
                  {
                    OFFSET 1.62519 -0.234802 1.16502
                  }
                }
              }
              JOINT lMid1
              {
                OFFSET 8.24714 1.18213 3.41376
                CHANNELS 3 Zrotation Xrotation Yrotation
                JOINT lMid2
                {
                  OFFSET 3.10165 -0.590103 1.0647
                  CHANNELS 3 Zrotation Xrotation Yrotation
                  End Site
                  {
                    OFFSET 2.48547 -0.328903 0.83742
                  }
                }
              }
              JOINT lRing1
              {
                OFFSET 8.82822 0.546677 1.51678
                CHANNELS 3 Zrotation Xrotation Yrotation
                JOINT lRing2
                {
                  OFFSET 2.60934 -0.819778 -0.0198488
                  CHANNELS 3 Zrotation Xrotation Yrotation
                  End Site
                  {
                    OFFSET 2.33842 -0.294052 0.168128
                  }
                }
              }
              JOINT lPinky1
              {
                OFFSET 8.27202 -0.0477905 -0.4584
                CHANNELS 3 Zrotation Xrotation Yrotation
                JOINT lPinky2
                {
                  OFFSET 1.82734 -0.647385 -0.700984
                  CHANNELS 3 Zrotation Xrotation Yrotation
                  End Site
                  {
                    OFFSET 1.69225 -0.51767 -0.607171
                  }
                }
              }
            }
          }
        }
      }
    }
  }
  JOINT rButtock
  {
    OFFSET -8.77824 4.35084 1.2192
    CHANNELS 3 Zrotation Xrotation Yrotation
    JOINT rThigh
    {
      OFFSET 0 -1.70687 -2.19456
      CHANNELS 3 Zrotation Xrotation Yrotation
      JOINT rShin
      {
        OFFSET 0 -36.8199 0.73152
        CHANNELS 3 Zrotation Xrotation Yrotation
        JOINT rFoot
        {
          OFFSET 0.73152 -45.1104 -5.12064
          CHANNELS 3 Zrotation Xrotation Yrotation
          End Site
          {
            OFFSET -1.1221 -3.69964 12.103
          }
        }
      }
    }
  }
  JOINT lButtock
  {
    OFFSET 8.77824 4.35084 1.2192
    CHANNELS 3 Zrotation Xrotation Yrotation
    JOINT lThigh
    {
      OFFSET 0 -1.70687 -2.19456
      CHANNELS 3 Zrotation Xrotation Yrotation
      JOINT lShin
      {
        OFFSET 0 -36.8199 0.73152
        CHANNELS 3 Zrotation Xrotation Yrotation
        JOINT lFoot
        {
          OFFSET -0.73152 -45.1104 -5.12064
          CHANNELS 3 Zrotation Xrotation Yrotation
          End Site
          {
            OFFSET 1.1221 -3.69964 12.103
          }
        }
      }
    }
  }
}
MOTION
Frames:	6
Frame Time:	0.00833333
0.0 0.0 0.0 0.0 0.0 0.0 0.0 0.0 0.0 0.0 0.0 0.0 0.0 0.0 0.0 0.0 0.0 0.0 0.0 0.0 0.0 0.0 0.0 0.0 0.0 0.0 0.0 0.0 0.0 0.0 0.0 0.0 0.0 0.0 0.0 0.0 0.0 0.0 0.0 0.0 0.0 0.0 0.0 0.0 0.0 0.0 0.0 0.0 0.0 0.0 0.0 0.0 0.0 0.0 0.0 0.0 0.0 0.0 0.0 0.0 0.0 0.0 0.0 0.0 0.0 0.0 0.0 0.0 0.0 0.0 0.0 0.0 0.0 0.0 0.0 0.0 0.0 0.0 0.0 0.0 0.0 0.0 0.0 0.0 0.0 0.0 0.0 0.0 0.0 0.0 0.0 0.0 0.0 0.0 0.0 0.0 0.0 0.0 0.0 0.0 0.0 0.0 0.0 0.0 0.0 0.0 0.0 0.0 0.0 0.0 0.0 0.0 0.0 0.0 0.0 0.0 0.0 0.0 0.0 0.0 0.0 0.0 0.0 0.0 0.0 0.0 0.0 0.0 0.0 0.0 0.0 0.0
110.6294 83.6673 -2.1512 123.5374 -87.9794 -119.237444 0.400189 -2.090474 -15.046847 0.286464 -1.606742 16.560152 10.274985 14.591522 108.215722 -12.386369 12.403426 -110.559097 5.4e-05 -0.0 -0.004186 9.5e-05 0.0 0.001539 -158.417631 -29.366594 166.792969 176.5977 -0.00663 168.6936 -157.515631 71.573813 119.699417 161.870735 -36.158473 139.342435 -174.089137 -11.753267 89.874867 160.021808 -35.654388 100.62582 -12.940964 17.784893 8.597005 -165.753321 -16.623563 110.164246 -39.289037 53.365953 32.878218 179.923629 -49.556722 141.074309 -145.118201 0.225651 -179.201559 -154.414698 71.870431 169.596842 17.200143 60.274777 12.770015 -148.871977 13.431781 -143.511245 -4.208367 -43.443081 8.384844 150.507629 -41.862621 164.109773 166.592141 3.000507 173.784253 -0.524047 6.369403 -1.101509 -178.619092 -18.760121 -89.037754 33.277774 -29.191367 1.550181 -5.920579 -10.174729 2.969305 -31.943102 -26.848992 0.115096 36.03571 51.723371 -29.831838 -3.33292 0.217815 -0.098388 -0.000881 -0.060736 0.019859 154.176104 -65.020528 178.251065 -19.446927 67.28259 -13.093397 -67.094446 85.307617 29.8154 -0.000868 0.000129 -0.000434 0.724446 -9.597698 4.336979 5.187624 12.109155 30.242937 -65.363616 28.010953 -1.828515 -0.000117 0.000129 0.00015 0.913136 -6.235124 -45.491271 -4.680112 9.991988 96.223315 -82.744663 28.939296 1.303839
110.5114 83.8287 -2.1295 114.330288 -88.135848 -110.238406 -1.615884 -8.904944 -180.0 -0.740576 -1.271169 -177.097332 -8.942777 24.083939 -124.531664 14.531621 25.786137 117.59068 0.004716 -0.0 -0.001165 -0.000962 0.0 -0.000642 -6.042052 25.599265 7.233846 -121.071723 -9.498433 163.487532 -160.117467 38.313688 -177.136703 0.046 2.080398 0.319284 3.67226 -3.652603 -0.44904 -164.433372 -75.885867 117.143739 -10.283723 14.665739 6.659664 -66.654481 48.445596 49.934214 -39.289025 53.365409 32.879582 -42.045272 58.501209 36.276823 0.006058 1.77151 0.555647 6.526276 31.036179 4.968699 -26.566812 -38.859687 -25.607367 4.379433 3.25862 0.654041 143.619854 38.232888 -148.079471 -64.507424 -45.660383 -81.53833 -79.39295 82.415242 131.505597 -161.625519 -25.884548 -143.088703 169.145083 -6.826656 -89.916293 2.927313 -51.208762 -8.669131 -54.89831 -68.588353 -11.30982 -66.896958 -57.858349 -14.349754 -5.893317 -18.351872 2.545548 -13.083753 -30.058307 1.397573 145.110632 -0.668074 178.917364 -12.191824 44.699853 3.863462 41.390582 -46.84035 40.214136 145.086299 7.308839 142.085283 179.999111 75.750432 0.000918 -179.576746 62.173678 -0.370388 -5.762081 27.181257 -95.373745 163.274822 11.967414 -77.663692 -0.000313 -0.00079 -0.000469 -0.259178 -12.387958 -180.0 7.944396 -26.931284 67.500183 85.82779 -39.303819 168.519855
110.3904 84.0712 -2.128 109.090038 -88.244556 -105.194002 -0.90264 -9.900607 -129.071558 1.425307 0.132854 133.650175 -8.532218 28.667108 -138.436929 10.946174 33.536775 128.666374 0.002037 0.0 0.001506 0.001013 -0.0 -0.00411 -152.689036 11.677127 158.2291 -48.199315 -25.962988 26.986547 -176.726877 20.116717 -156.361194 -7.574594 26.470706 1.223402 -176.597917 -14.213307 89.690961 0.09215 -57.025496 5.427067 -152.10512 -18.55717 121.366413 10.92911 0.973283 -9.741825 -169.089598 -33.247409 145.374848 -42.544571 58.280126 36.547976 -0.01439 -1.323064 -0.416459 0.349914 -79.140903 -20.346366 8.368249 26.426566 7.363948 5.973124 12.07994 3.13624 59.83624 -86.720945 81.636587 -2.05289 14.837627 56.935147 82.432698 56.333568 -103.776023 -5.755315 1.986617 -5.097765 2.210792 2.168217 -0.380538 -36.821885 -57.13855 16.365086 158.400442 -30.156279 -122.604988 -110.233417 -71.073455 -54.549615 22.004822 41.04074 -17.008492 -2.81087 1.6717 -0.25694 0.000258 0.063903 -0.019218 -9.703378 -62.549763 9.18407 142.203563 3.26817 139.14363 -1.636291 -2.082712 2.63292 -0.0 0.001392 0.002062 -0.337034 -17.090567 -1.146692 -4.763666 36.600047 -126.303899 -166.418871 48.208998 -104.019784 179.998141 75.749996 0.001918 178.898066 59.625619 -178.722804 7.633283 -36.992553 52.663699 -80.633813 58.254363 179.167266
110.28739999999999 84.04209999999999 -2.1302000000000003 110.039913 -88.276933 -106.375934 -1.546874 -8.24428 -53.97152 3.828082 -3.559973 59.720553 -15.019492 22.412976 -78.174668 30.841903 15.876242 64.825987 -0.003301 0.0 -0.004182 -0.001311 -0.0 0.000585 4.260875 -46.008847 -8.910304 117.68177 28.750191 -60.54338 157.17637 60.35147 139.210207 171.30671 -10.866148 145.014662 -17.260709 15.647507 4.954662 -134.930444 -36.570279 108.367809 22.03954 -39.133771 -5.840957 -57.993903 50.013368 47.239317 -173.038183 -44.087682 144.931037 -175.605884 -39.343954 142.909238 -0.015182 -1.323046 -0.416553 -156.364706 -42.787778 177.032103 -74.130879 -51.746871 -72.618773 -170.723309 74.401907 -144.082328 159.220464 -48.724887 -170.568259 30.438368 48.258968 45.12132 -174.292062 -64.03566 -98.89551 -148.01905 -42.487425 -135.678239 68.482106 37.953868 -35.659864 -19.30864 -21.901733 -18.368182 -24.078253 -42.305776 5.557654 -15.068197 1.10314 2.514496 0.571134 1.648336 -0.322208 172.065477 -31.345922 -144.105672 72.133325 72.97494 -89.989509 -4.973161 29.769568 0.413903 74.132901 -51.746607 72.618079 147.017289 13.557638 143.228783 -0.000549 0.001346 0.000706 -0.74733 -19.430849 -0.262629 8.363323 33.058785 66.657056 -168.474513 -47.03841 107.22896 179.968815 75.750034 0.025659 178.488404 57.112822 178.865871 -5.38795 -40.869648 -87.895221 -93.944945 65.638476 -12.358239
110.1234 84.0526 -2.1475999999999997 117.409573 -88.201177 -114.067657 -4.914381 -12.073969 149.816459 -3.239805 0.598597 -144.324827 1.490253 31.239441 155.790268 -22.284106 29.732975 -162.063515 -0.004161 0.0 -0.000658 -0.004161 0.0 -0.000658 -152.135397 14.084342 157.564625 -6.015636 -68.393427 77.534617 -89.791756 -47.105295 -91.97301 16.448176 -37.678467 8.369702 -0.491114 0.484895 0.07716 -29.765302 23.382417 26.642435 -14.226878 19.203773 9.560252 -176.92111 -30.903284 107.805615 -167.374982 -28.008319 145.270232 -170.536808 -26.266994 143.891079 -145.11951 0.268432 -179.211072 -6.962323 -61.108751 -27.916785 -27.550921 -39.573859 -26.576547 -8.596658 -24.66109 -10.901277 -0.163532 -0.989986 0.218771 -98.252488 7.98876 14.708516 -31.64239 -46.16597 -60.551555 27.268768 70.916818 -18.124442 0.543145 0.536558 -0.085872 154.939359 -65.920892 -118.567056 1.957578 3.105184 -1.141352 65.936931 48.377641 -50.543555 175.932746 -50.680335 -144.035655 144.319756 37.249693 -131.200753 72.759734 -72.141339 89.773138 58.362461 -82.270081 84.271447 -5.663223 16.872237 -5.087053 -9.767105 24.823273 -5.872293 -0.000202 -0.000291 0.00026 -0.919965 -22.369089 177.583899 -8.000967 -38.765648 -97.162233 -98.167944 83.44037 1.382171 -179.993185 75.749404 -0.005608 178.426656 56.340375 -178.109956 5.906545 -36.737794 134.132042 -139.473524 -66.21983 -55.591469
